<?xml version="1.0" encoding="utf-8"?>
<svg width="350px" height="80px" viewBox="0 0 350 80" version="1.1" xmlns:xlink="http://www.w3.org/1999/xlink" xmlns="http://www.w3.org/2000/svg">
  <defs>
    <path d="M0 0L350 0L350 80L0 80L0 0Z" id="path_1" />
    <clipPath id="mask_1">
      <use xlink:href="#path_1" />
    </clipPath>
  </defs>
  <g id="gabmar_black">
    <path d="M0 0L350 0L350 80L0 80L0 0Z" id="Tło" fill="#FFFFFF" fill-opacity="0" fill-rule="evenodd" stroke="none" />
    <path d="M211.384 27.9855L211.384 9.42026L214.929 9.5143L218.475 9.60834L225.35 20.9956C229.132 27.2586 232.289 32.4466 232.367 32.5245C232.445 32.6024 235.607 27.4409 239.395 21.0544L246.281 9.44268L249.705 9.44268L253.13 9.44268L253.13 27.9967L253.13 46.5508L249.32 46.5508L245.51 46.5508L245.51 35.2858C245.51 29.0901 245.398 24.0285 245.261 24.0379C245.125 24.0473 242.553 28.2249 239.546 33.3214L234.079 42.5879L232.276 42.4986L230.474 42.4092L225.24 33.8158C222.362 29.0895 219.856 25.0714 219.671 24.8867C219.444 24.6599 219.335 28.1213 219.335 35.5509L219.335 46.5508L215.359 46.5508L211.384 46.5508L211.384 27.9855ZM257.766 46.3023C257.765 46.1656 261.437 37.8163 265.928 27.7482L274.092 9.44268L278.272 9.44663L282.452 9.45058L290.469 27.4209C294.878 37.3045 298.584 45.6521 298.704 45.9709C298.906 46.5046 298.581 46.5508 294.625 46.5508L290.327 46.5508L288.655 42.4921L286.982 38.4334L278.222 38.3452L269.462 38.2571L267.724 42.4039L265.985 46.5508L261.877 46.5508C259.617 46.5508 257.768 46.4389 257.766 46.3023L257.766 46.3023ZM284.138 31.7241C282.905 28.277 278.411 17.7623 278.199 17.8266C277.828 17.9389 272.049 31.8958 272.278 32.1249C272.377 32.2233 275.132 32.3039 278.401 32.3039C283.92 32.3039 284.331 32.2625 284.138 31.7241L284.138 31.7241ZM303.16 27.9967L303.16 9.44268L312.715 9.44268C321.215 9.44268 322.559 9.51656 324.885 10.1114C329.452 11.2794 332.459 13.6147 334.262 17.3944C335.03 19.0036 335.132 19.6242 335.132 22.7025C335.132 25.974 335.065 26.3244 334.043 28.4004C332.94 30.6421 330.835 32.8537 328.837 33.8703C328.291 34.1485 327.788 34.4244 327.722 34.4834C327.612 34.5799 333.239 42.8134 335.232 45.474L336.039 46.5508L331.579 46.5508L327.119 46.5508L323.505 41.2643L319.892 35.9779L315.667 35.9632L311.443 35.9485L311.443 41.2496L311.443 46.5508L307.301 46.5508L303.16 46.5508L303.16 27.9967ZM322.41 28.9449C325.347 27.9617 326.798 25.9508 326.8 22.8612C326.803 19.3299 325.12 17.2004 321.714 16.4248C320.894 16.2381 318.247 16.0817 315.833 16.0772L311.443 16.0691L311.443 22.6956L311.443 29.322L316.363 29.322C319.161 29.322 321.769 29.1593 322.41 28.9449L322.41 28.9449ZM170.631 28.0384L170.631 9.44268L181.316 9.44758C192.667 9.45278 194.606 9.65405 197.561 11.1336C201.729 13.2205 203.542 17.2153 202.285 21.5415C201.828 23.1134 201.358 23.8354 199.8 25.3601L197.878 27.2404L199.257 27.9105C202.755 29.6097 204.452 32.3325 204.465 36.2643C204.477 40.1282 202.832 42.8404 199.422 44.5801C196.53 46.0555 194.576 46.2698 182.31 46.4564L170.631 46.6341L170.631 28.0384ZM192.184 39.8897C193.182 39.6758 194.314 39.1456 194.909 38.6136C195.783 37.833 195.948 37.4233 196.07 35.7334C196.198 33.9701 196.119 33.6523 195.325 32.7077C193.904 31.0194 192.036 30.6473 184.983 30.6473L178.914 30.6473L178.914 35.4515L178.914 40.2556L184.696 40.2556C187.876 40.2556 191.246 40.091 192.184 39.8897L192.184 39.8897ZM191.312 24.0892C193.445 23.349 194.282 22.2118 194.282 20.0526C194.282 18.7617 194.106 18.2095 193.473 17.5237C192.025 15.9542 190.794 15.67 184.629 15.4834L178.914 15.3104L178.914 19.997L178.914 24.6835L184.298 24.669C188.486 24.6577 190.044 24.529 191.312 24.0892L191.312 24.0892ZM125.576 45.1427C125.922 44.3682 129.63 36.0561 133.815 26.6714L141.425 9.60834L145.665 9.60834L149.904 9.60834L158.114 27.9611C162.629 38.0551 166.324 46.3672 166.324 46.4323C166.324 46.4975 164.4 46.5508 162.05 46.5508L157.776 46.5508L156.037 42.4039L154.299 38.2571L145.539 38.3452L136.779 38.4334L135.106 42.4921L133.434 46.5508L129.19 46.5508L124.946 46.5508L125.576 45.1427ZM151.746 32.1708C151.746 31.5806 145.861 17.9965 145.61 18.0072C145.358 18.018 139.487 31.598 139.487 32.1708C139.487 32.244 142.245 32.3039 145.616 32.3039C148.987 32.3039 151.746 32.244 151.746 32.1708L151.746 32.1708ZM101.026 46.3777C95.446 45.023 90.2424 40.8839 88.0961 36.0934C86.4595 32.4406 85.9783 26.7298 86.9824 22.875C88.0627 18.7276 90.9991 14.6586 94.6703 12.2217C99.0894 9.28854 106.071 8.06219 111.656 9.23818C114.833 9.90716 119.07 11.9993 120.753 13.7295L122.063 15.0776L119.625 17.3128C118.285 18.5422 117.096 19.5862 116.983 19.6329C116.871 19.6796 116 19.133 115.049 18.4184C112.622 16.5942 110.43 15.9099 107.017 15.9099C103.582 15.9099 101.352 16.6124 99.0761 18.411C92.9686 23.2388 93.5202 33.9741 100.089 38.1206C103.202 40.0861 109.017 40.4982 112.416 38.9944L113.975 38.305L113.975 32.8195L113.975 27.3341L117.785 27.3341L121.595 27.3341L121.595 34.7663L121.595 42.1985L120.622 42.8912C118.973 44.0657 115.591 45.5095 112.845 46.2119C109.745 47.0047 103.943 47.0861 101.026 46.3777L101.026 46.3777ZM92.1904 60.5905L92.1904 50.8165L93.5571 50.8165L94.9238 50.8165L94.9238 59.3895L94.9238 67.9625L100.225 67.9625L105.526 67.9625L105.526 69.1635L105.526 70.3645L98.8583 70.3645L92.1904 70.3645L92.1904 60.5905ZM113.064 70.4387C110.65 70.0734 108.961 68.6096 108.322 66.3296C108.147 65.7046 108.14 65.5289 108.113 60.6527L108.086 55.6207L109.369 55.6207L110.652 55.6207L110.683 60.2799C110.711 64.4265 110.731 64.9933 110.861 65.4316C111.382 67.1925 112.484 68.0549 114.368 68.1769C116.347 68.3049 118.043 67.4516 118.767 65.964C119.31 64.8481 119.307 64.885 119.339 60.0314L119.368 55.6207L120.647 55.6207L121.927 55.6207L121.927 62.9926L121.927 70.3645L120.725 70.3645L119.524 70.3645L119.524 69.2463C119.524 68.6313 119.496 68.13 119.462 68.1324C119.428 68.1348 119.276 68.2932 119.123 68.4844C118.481 69.2909 117.29 70.0214 116.128 70.3218C115.481 70.4892 113.817 70.5527 113.064 70.4387L113.064 70.4387ZM132.153 70.4161C130.5 70.1447 129.2 69.5041 128.026 68.3817C127.104 67.5005 126.503 66.5011 126.094 65.1708C125.89 64.505 125.87 64.3208 125.866 63.034C125.86 61.3384 125.957 60.8849 126.61 59.5552C127.634 57.4697 129.405 56.1494 131.908 55.6063C132.208 55.5412 132.913 55.5017 133.689 55.5065C135.203 55.516 135.864 55.6602 137.043 56.2386C138.076 56.7452 139.037 57.595 139.448 58.3657L139.564 58.5843L138.594 59.2114L137.623 59.8386L137.464 59.614C136.918 58.8449 135.877 58.1507 134.893 57.9C134.244 57.7348 132.796 57.7357 132.153 57.9017C130.524 58.3222 129.3 59.4431 128.735 61.0315C128.459 61.8078 128.385 63.4475 128.585 64.3896C128.97 66.2127 130.322 67.6132 132.156 68.0889C132.813 68.2592 134.239 68.2595 134.89 68.0895C135.886 67.8289 136.922 67.1371 137.464 66.3705L137.623 66.1452L138.531 66.7238C139.031 67.042 139.468 67.3311 139.503 67.3661C139.611 67.4742 139.036 68.2349 138.405 68.82C137.7 69.4719 136.654 70.0264 135.635 70.2875C134.783 70.5057 133.082 70.5686 132.153 70.4161L132.153 70.4161ZM140.479 75.9084C139.789 75.8484 139.024 75.6491 138.578 75.4128C138.003 75.1085 138.012 75.1901 138.447 74.1402C138.665 73.6125 138.875 73.1808 138.912 73.1808C138.95 73.1808 139.112 73.2585 139.273 73.3534C139.942 73.7483 141.194 73.8815 141.899 73.6328C142.367 73.4679 142.823 73.019 143.064 72.4856L143.255 72.0626L143.278 63.8416L143.301 55.6207L144.583 55.6207L145.865 55.6207L145.863 63.8416C145.862 72.8989 145.879 72.5848 145.344 73.6727C144.534 75.3217 142.815 76.1116 140.479 75.9084L140.479 75.9084ZM131.783 70.2926C128.844 69.6483 126.697 67.5573 126.019 64.6793C125.912 64.2269 125.894 63.8235 125.927 62.7027C125.963 61.4883 125.997 61.2149 126.172 60.7148C127.067 58.1624 128.809 56.5195 131.412 55.7723C131.992 55.6059 132.257 55.5825 133.564 55.5828C134.722 55.5831 135.173 55.6154 135.584 55.7272C136.197 55.8945 137.301 56.4029 137.813 56.7543C138.563 57.269 139.599 58.4488 139.434 58.5996C139.394 58.6353 138.979 58.9112 138.51 59.2128L137.658 59.7612L137.392 59.4603C137.246 59.2948 137.107 59.1354 137.085 59.106C137.062 59.0766 136.875 58.9185 136.67 58.7546C136.209 58.3861 135.519 58.0333 134.972 57.8871C134.408 57.7361 132.617 57.7419 132.036 57.8965C130.534 58.2961 129.324 59.4018 128.742 60.9056C128.553 61.3938 128.523 61.6144 128.489 62.7467C128.459 63.758 128.48 64.1477 128.586 64.5689C128.783 65.3533 129.192 66.1075 129.737 66.6905C130.885 67.9201 132.284 68.3854 134.279 68.2013C135.15 68.1209 135.922 67.8117 136.629 67.2602C136.961 67.0008 137.521 66.4312 137.631 66.2396C137.639 66.226 138.058 66.481 138.564 66.8064L139.483 67.3979L139.348 67.6584C139.274 67.8016 138.91 68.2175 138.54 68.5825C137.773 69.3375 136.806 69.9 135.759 70.1997C134.852 70.4596 132.768 70.5083 131.783 70.2925L131.783 70.2926ZM143.835 52.4843C142.751 51.992 142.492 50.6222 143.326 49.7897C144.091 49.0254 145.224 49.0674 145.963 49.8875C146.665 50.6658 146.413 51.9419 145.458 52.4461C145.004 52.6859 144.314 52.7022 143.835 52.4843L143.835 52.4843ZM112.821 70.3629C110.334 69.8367 108.545 67.9947 108.261 65.6672C108.218 65.3123 108.17 62.9067 108.154 60.3213L108.125 55.6207L109.339 55.6207L110.553 55.6207L110.607 56.6768C110.637 57.2577 110.661 59.1866 110.662 60.9633C110.663 64.7694 110.71 65.3165 111.105 66.1724C111.779 67.6312 113.04 68.2804 115.01 68.1835C115.511 68.1588 116.1 68.0817 116.319 68.012C117.369 67.6768 118.364 66.8754 118.802 66.0115C119.293 65.0403 119.291 65.0667 119.362 60.1764C119.398 57.6935 119.431 55.6528 119.435 55.6414C119.439 55.63 120.001 55.6207 120.684 55.6207L121.927 55.6207L121.927 62.9926L121.927 70.3645L120.726 70.3645L119.525 70.3645L119.525 69.2463C119.525 68.6313 119.502 68.1281 119.474 68.1281C119.446 68.1281 119.109 68.4251 118.726 68.7881C117.985 69.4891 117.107 69.9991 116.211 70.2479C115.666 70.3993 113.363 70.4775 112.822 70.3629L112.821 70.3629ZM154.012 70.4135C152.869 70.1954 151.949 69.7774 151.273 69.1698C150.389 68.3752 149.995 67.4534 149.996 66.1816C149.998 64.1159 151.169 62.7335 153.407 62.154C154.049 61.988 154.357 61.9701 157.15 61.9374L160.194 61.9018L160.193 61.3911C160.189 59.8461 159.57 58.709 158.429 58.151C156.756 57.3321 153.69 57.7264 151.833 58.9995L151.465 59.2521L150.974 58.3683C150.704 57.8821 150.467 57.4426 150.447 57.3915C150.427 57.3404 150.678 57.1282 151.003 56.9199C152.829 55.7517 155.598 55.2165 157.958 55.5758C160.405 55.9484 161.922 57.204 162.566 59.3895C162.698 59.8367 162.715 60.4109 162.741 65.1255L162.769 70.3645L161.565 70.3645L160.36 70.3645L160.36 69.412C160.36 68.8881 160.343 68.4594 160.322 68.4594C160.301 68.4594 160.03 68.711 159.721 69.0185C158.727 70.0081 157.553 70.4367 155.68 70.4936C154.982 70.5148 154.396 70.4866 154.012 70.4135L154.012 70.4135ZM157.012 68.4194C158.277 68.1772 159.271 67.5004 159.884 66.4629L160.194 65.9369L160.194 64.8298L160.194 63.7228L157.482 63.7573C154.962 63.7893 154.729 63.8048 154.213 63.9743C153.093 64.3421 152.637 64.9091 152.586 65.997C152.56 66.5615 152.583 66.6961 152.776 67.0907C152.897 67.3382 153.116 67.6416 153.261 67.7648C154.065 68.4447 155.537 68.7016 157.012 68.4194L157.012 68.4194ZM167.815 62.9926L167.815 55.6207L169.099 55.6207L170.382 55.6207L170.382 56.7208L170.382 57.8208L171.024 57.1903C172.095 56.1387 173.475 55.5841 175.269 55.4845C178.438 55.3086 180.811 56.8291 181.56 59.5151C181.831 60.4855 181.893 61.7284 181.895 66.2023L181.896 70.3645L180.575 70.3645L179.254 70.3645L179.227 65.6225C179.2 60.9804 179.196 60.8689 179.016 60.3336C178.346 58.3406 176.555 57.4549 174.086 57.8951C172.385 58.1982 171.17 59.3005 170.654 61.0085C170.536 61.398 170.513 62.0735 170.486 65.9124L170.456 70.3645L169.135 70.3645L167.814 70.3645L167.815 62.9926ZM104.129 46.7512C101.758 46.6004 99.8411 46.1296 97.7401 45.1822C93.5932 43.3122 90.0904 40.0583 88.3349 36.4454C86.5284 32.7275 85.9865 26.9225 87.0594 22.7832C87.458 21.2455 88.4043 19.1822 89.4139 17.649C91.2914 14.7982 94.0597 12.3544 96.905 11.0363C100.032 9.5878 103.389 8.87872 107.141 8.87415C110.847 8.86964 113.268 9.44281 116.756 11.1506C118.558 12.0324 119.787 12.8796 120.991 14.0683L122.01 15.0752L120.963 16.0277C118.987 17.8239 117.84 18.8551 117.405 19.2269L116.969 19.5991L116.651 19.4366C116.475 19.3472 115.867 18.94 115.298 18.5317C113.407 17.1732 112.23 16.5991 110.579 16.2285C107.811 15.6075 104.143 15.8015 101.912 16.687C100.558 17.2247 99.1065 18.2008 98.0534 19.2825C93.7018 23.7527 93.6851 31.7988 98.0178 36.4535C100.173 38.769 103.206 39.8968 107.307 39.9073C109.651 39.9133 110.892 39.6789 112.795 38.8704L113.975 38.3688L113.975 32.8721L113.975 27.3755L117.785 27.3755L121.595 27.3755L121.595 34.7687L121.595 42.1619L120.581 42.8371C118.608 44.1494 115.474 45.4918 112.781 46.1771C110.722 46.701 107.109 46.9408 104.129 46.7512L104.129 46.7512ZM125.075 46.4472C125.075 46.4131 128.758 38.129 133.259 28.0381L141.443 9.69117L145.662 9.67131L149.882 9.65145L154.554 20.108C163.323 39.732 166.256 46.3566 166.2 46.4123C166.169 46.4429 164.271 46.4807 161.982 46.4963L157.82 46.5246L156.695 43.8457C156.077 42.3723 155.297 40.5037 154.963 39.6933L154.355 38.2198L148.391 38.2755C145.111 38.3061 141.144 38.3541 139.576 38.3823L136.726 38.4334L135.063 42.4714L133.4 46.5094L129.237 46.5094C126.947 46.5094 125.074 46.4814 125.075 46.4472L125.075 46.4472ZM150.366 32.2909C151.68 32.2391 151.746 32.2285 151.746 32.068C151.746 31.621 147.944 22.6643 146.314 19.2712C145.925 18.4621 145.665 18.0125 145.598 18.0338C145.462 18.0765 144.99 19.0371 143.855 21.5774C141.755 26.2784 139.487 31.7309 139.487 32.0783C139.487 32.2493 139.527 32.2582 140.418 32.2835C142.348 32.3382 149.04 32.3432 150.366 32.2909L150.366 32.2909ZM92.1904 60.5905L92.1904 50.8165L93.5571 50.8165L94.9238 50.8165L94.9238 59.3895L94.9238 67.9625L100.225 67.9625L105.526 67.9625L105.526 69.1635L105.526 70.3645L98.8583 70.3645L92.1904 70.3645L92.1904 60.5905ZM170.631 28.0381L170.631 9.4841L178.272 9.48511C190.998 9.48679 193.673 9.64468 196.056 10.5349C199.357 11.7676 201.478 13.8382 202.319 16.6489C202.642 17.731 202.694 19.4339 202.44 20.6641C202.216 21.7506 201.827 22.7964 201.405 23.441C201.226 23.7144 200.361 24.6668 199.481 25.5576C198.602 26.4484 197.882 27.2029 197.882 27.2343C197.882 27.2658 198.375 27.5383 198.977 27.8401C201.405 29.0567 202.677 30.2451 203.547 32.1079C204.967 35.1512 204.639 39.2658 202.775 41.7802C201.498 43.5027 199.189 44.9374 196.711 45.5476C194.349 46.1294 191.827 46.2615 179.121 46.4689C174.975 46.5365 171.369 46.592 171.107 46.592L170.631 46.5922L170.631 28.0381ZM188.564 40.2146C191.947 40.0644 192.664 39.9369 194.007 39.2466C194.876 38.7993 195.63 38.056 195.841 37.4376C196.023 36.9019 196.171 35.3947 196.126 34.5184C196.081 33.6184 195.929 33.3019 195.146 32.4783C193.618 30.8699 191.955 30.6083 183.242 30.6067L178.914 30.6059L178.914 35.4515L178.914 40.2971L182.828 40.2962C184.98 40.2958 187.561 40.259 188.564 40.2146L188.564 40.2146ZM189.144 24.561C190.972 24.3576 192.488 23.797 193.273 23.0339C193.963 22.3637 194.316 21.3509 194.319 20.0356C194.322 18.6484 194.128 18.1467 193.248 17.2623C191.8 15.8061 190.793 15.6328 182.227 15.3644C180.792 15.3194 179.46 15.2826 179.266 15.2824L178.914 15.2822L178.914 20.0149L178.914 24.7475L183.615 24.7003C186.2 24.6743 188.688 24.6116 189.144 24.561L189.144 24.561ZM211.384 27.985L211.384 9.46068L213.641 9.51491C214.882 9.54473 216.476 9.59265 217.182 9.62139L218.466 9.67365L221.215 14.2381C229.134 27.3831 232.273 32.5261 232.384 32.5417C232.549 32.5647 236.591 25.9086 243.152 14.8092L246.297 9.49066L249.713 9.48738L253.13 9.48411L253.13 27.9967L253.13 46.5094L249.327 46.5094L245.524 46.5094L245.478 35.6793C245.453 29.7227 245.409 24.6535 245.381 24.4143C245.352 24.1751 245.298 23.9794 245.262 23.9794C245.067 23.9794 242.403 28.3694 235.82 39.5373L234.046 42.5463L232.758 42.4888C232.05 42.4571 231.248 42.4077 230.977 42.3788L230.484 42.3264L228.92 39.7587C223.165 30.3081 220.274 25.6229 219.854 25.067C219.684 24.8425 219.629 24.812 219.574 24.9116C219.402 25.2191 219.338 28.5367 219.337 37.2116L219.336 46.5094L215.36 46.5094L211.384 46.5094L211.384 27.985ZM194.817 60.5905L194.817 50.8165L196.184 50.8165L197.551 50.8165L197.551 56.2834C197.551 59.2901 197.579 61.7502 197.613 61.7502C197.648 61.7502 200.061 59.2912 202.977 56.2857L208.277 50.8213L209.805 50.8189L211.332 50.8165L211.123 51.0443C211.008 51.1696 209.134 53.1481 206.959 55.4409C203.402 59.1907 203.016 59.6237 203.121 59.7481C203.186 59.8242 204.39 61.2842 205.796 62.9926C207.203 64.701 209.148 67.0585 210.118 68.2316L211.882 70.3645L210.287 70.3587L208.692 70.3529L204.964 66.0108C202.914 63.6226 201.214 61.6683 201.185 61.6679C201.157 61.6675 200.327 62.4885 199.342 63.4923L197.551 65.3174L197.551 67.8409L197.551 70.3644L196.184 70.3644L194.817 70.3644L194.817 60.5905ZM218.924 70.4333C216.745 70.1222 214.997 68.7434 214.362 66.8347C213.982 65.6919 213.957 65.2971 213.954 60.3214L213.951 55.6207L215.229 55.6207L216.507 55.6207L216.541 60.2385C216.579 65.3275 216.587 65.4158 217.112 66.4019C217.874 67.8306 219.646 68.4803 221.709 68.0873C223.365 67.7719 224.517 66.7024 225.018 65.0168C225.147 64.58 225.167 64.027 225.194 60.0729L225.225 55.6207L226.546 55.6207L227.867 55.6207L227.867 62.9926L227.867 70.3645L226.624 70.3645L225.382 70.3645L225.382 69.228L225.382 68.0915L224.864 68.6322C224.579 68.9296 224.167 69.2953 223.948 69.4449C222.633 70.3425 220.805 70.702 218.924 70.4333L218.924 70.4333ZM238.428 70.4792C235.54 70.0409 233.484 68.6182 232.385 66.2985C231.856 65.1817 231.731 64.5454 231.73 62.9512C231.73 61.6567 231.747 61.4843 231.953 60.8145C232.768 58.1502 234.664 56.3833 237.46 55.6835C238.481 55.4277 240.524 55.4312 241.492 55.6904C242.353 55.9206 243.517 56.5008 244.143 57.012C244.608 57.3918 245.385 58.3391 245.385 58.5264C245.385 58.5726 244.96 58.8842 244.441 59.2188L243.496 59.8274L243.178 59.4251C242.304 58.3199 241.047 57.7743 239.372 57.7743C236.859 57.7743 234.978 59.2471 234.448 61.6295C234.242 62.5579 234.312 64.0464 234.605 64.9456C235.111 66.5007 236.355 67.6464 238.014 68.0865C238.775 68.2885 240.187 68.2665 240.913 68.0412C241.232 67.9423 241.604 67.8052 241.741 67.7366C242.194 67.5091 242.856 66.9678 243.177 66.5616L243.494 66.1609L244.381 66.717C244.869 67.0229 245.304 67.3094 245.348 67.3537C245.475 67.4803 244.993 68.1355 244.293 68.7897C243.565 69.4696 242.535 70.0204 241.492 70.2875C240.844 70.4538 239.014 70.5683 238.428 70.4793L238.428 70.4792ZM248.823 60.0107L248.823 49.6569L250.148 49.6569L251.474 49.6569L251.474 53.6797L251.474 57.7025L251.867 57.3C252.602 56.5477 253.548 56.0193 254.745 55.6917C255.687 55.4339 257.683 55.43 258.609 55.6842C260.631 56.2391 262.001 57.6016 262.584 59.6381C262.771 60.2905 262.774 60.3779 262.802 65.3326L262.83 70.3646L261.547 70.3646L260.265 70.3646L260.232 65.7468C260.196 60.7316 260.185 60.6066 259.711 59.6704C259.046 58.3586 257.637 57.6912 255.787 57.8117C253.743 57.9448 252.384 58.9094 251.739 60.6855L251.517 61.2947L251.491 65.8296L251.466 70.3646L250.144 70.3646L248.823 70.3646L248.823 60.0107ZM258.86 46.4221C258.344 46.3875 257.9 46.3366 257.872 46.309C257.785 46.2222 260.487 40.0726 268.872 21.2667L274.126 9.4841L278.271 9.4841L282.416 9.4841L285.677 16.7939C294.05 35.5629 298.687 46.022 298.687 46.1381C298.687 46.4332 298.323 46.4624 294.297 46.4914L290.362 46.5198L288.7 42.4766L287.038 38.4334L284.186 38.3822C282.617 38.3541 278.65 38.3061 275.37 38.2755L269.406 38.2198L268.798 39.6933C268.464 40.5037 267.686 42.3689 267.069 43.8381L265.947 46.5093L262.873 46.4972C261.182 46.4905 259.376 46.4567 258.86 46.4221L258.86 46.4221ZM283.881 32.1877C284.12 32.1117 284.192 32.0456 284.192 31.9004C284.192 31.4428 280.893 23.4168 279.071 19.4403C278.441 18.0666 278.257 17.7391 278.153 17.8038C277.913 17.9519 275.607 23.2665 273.657 28.1624C272.434 31.2339 272.129 32.1565 272.326 32.1904C273.258 32.3508 283.375 32.3484 283.881 32.1877L283.881 32.1877ZM303.16 27.9892L303.16 9.4691L312.085 9.50843C321.509 9.54996 322.092 9.57172 323.95 9.95072C327.447 10.664 330.435 12.2716 332.277 14.4308C333.627 16.0131 334.728 18.1578 334.959 19.6558C335.079 20.4302 335.082 25.0931 334.963 25.7603C334.824 26.5463 334.654 27.0101 334.087 28.1624C333.398 29.5602 332.656 30.5949 331.529 31.7297C330.511 32.7542 329.901 33.2143 328.604 33.9372C328.117 34.2084 327.704 34.4452 327.685 34.4634C327.563 34.5846 332.65 42.0663 335.17 45.4718C335.559 45.9976 335.877 46.4462 335.877 46.4686C335.877 46.491 333.911 46.5083 331.508 46.5069L327.139 46.5045L323.536 41.2105L319.932 35.9165L315.687 35.9118L311.442 35.9071L311.442 41.2083L311.442 46.5094L307.301 46.5094L303.159 46.5094L303.16 27.9892ZM321.01 29.2008C322.167 29.0831 322.642 28.9503 323.619 28.4718C324.271 28.1523 324.527 27.9652 325.115 27.3789C325.921 26.5747 326.332 25.877 326.615 24.8326C326.87 23.8941 326.869 21.7463 326.613 20.7905C325.861 17.976 323.837 16.5194 320.223 16.1922C319.653 16.1406 317.445 16.0775 315.315 16.0519L311.443 16.0053L311.443 22.6945L311.443 29.3837L315.771 29.3386C318.151 29.3138 320.508 29.2518 321.01 29.2008L321.01 29.2008ZM270.803 70.4135C269.534 70.1712 268.634 69.7314 267.895 68.9925C267.012 68.1096 266.642 66.9735 266.804 65.6397C267.024 63.8242 268.239 62.6135 270.347 62.1094C270.78 62.0058 271.548 61.9696 273.941 61.9397L276.985 61.9018L276.985 61.474C276.982 59.3842 276.007 58.1548 274.075 57.8041C272.384 57.4971 270.078 58.003 268.624 58.9995L268.255 59.2522L267.764 58.3683C267.494 57.8821 267.257 57.4426 267.238 57.3915C267.218 57.3404 267.468 57.1282 267.794 56.9199C270.33 55.2975 274.42 54.984 276.868 56.2245C278.233 56.9162 279.191 58.3122 279.465 60.0107C279.518 60.3428 279.552 62.4298 279.552 65.4568L279.553 70.3645L278.352 70.3645L277.151 70.3645L277.151 69.412C277.151 68.8881 277.134 68.4594 277.112 68.4594C277.091 68.4594 276.821 68.711 276.512 69.0185C275.517 70.0081 274.343 70.4367 272.471 70.4936C271.773 70.5148 271.186 70.4866 270.803 70.4135L270.803 70.4135ZM273.821 68.4113C275.094 68.15 276.073 67.482 276.675 66.4629L276.985 65.9369L276.985 64.8298L276.985 63.7228L274.273 63.7573C271.753 63.7893 271.52 63.8048 271.004 63.9743C269.884 64.3421 269.428 64.9091 269.377 65.997C269.351 66.5615 269.374 66.6961 269.567 67.0907C269.82 67.6079 270.142 67.9084 270.735 68.181C271.517 68.5403 272.745 68.632 273.82 68.4113L273.821 68.4113ZM284.606 62.9926L284.606 55.6207L285.89 55.6207L287.174 55.6207L287.174 56.8794L287.174 58.1381L287.408 57.7698C287.537 57.5673 287.882 57.1805 288.174 56.9103C289.061 56.0914 290.285 55.6207 291.875 55.4882L292.557 55.4312L292.557 56.6856L292.557 57.94L292.04 57.9429C289.689 57.956 288.052 59.1217 287.449 61.2118C287.323 61.6481 287.302 62.2367 287.276 66.0367L287.247 70.3645L285.926 70.3645L284.606 70.3645L284.606 62.9926ZM298.737 70.4478C297.103 70.2421 295.215 69.5982 294.388 68.9649L294.189 68.8124L294.706 67.8283C294.99 67.2871 295.233 66.8332 295.247 66.8198C295.26 66.8063 295.471 66.9135 295.716 67.058C297.243 67.9596 299.536 68.4361 301.366 68.2316C303.185 68.0284 303.988 67.4253 303.988 66.2636C303.988 65.566 303.732 65.1822 303.031 64.8306C302.584 64.6067 301.992 64.4592 300.302 64.1515C297.377 63.6188 296.52 63.3055 295.66 62.4542C295.058 61.8588 294.817 61.3746 294.69 60.4994C294.494 59.1531 294.887 58.0094 295.864 57.0877C297.376 55.6615 299.967 55.141 302.953 55.6635C303.826 55.8162 305.29 56.289 305.781 56.5763L306.125 56.7774L305.58 57.7958L305.035 58.8142L304.34 58.4654C303.25 57.9185 302.386 57.7406 300.799 57.7364C299.288 57.7324 298.608 57.8817 297.959 58.36C297.078 59.0086 296.97 60.208 297.728 60.9069C298.214 61.3555 298.715 61.52 301.046 61.9983C304.08 62.6207 304.873 62.911 305.677 63.6921C306.999 64.9772 306.924 67.4448 305.522 68.818C304.75 69.5733 303.798 70.0401 302.448 70.3251C301.688 70.4856 299.589 70.555 298.737 70.4478L298.737 70.4478ZM310.035 60.0107L310.035 49.6569L311.36 49.6569L312.684 49.6569L312.706 56.3316L312.727 63.0062L316.768 59.3135L320.81 55.6207L322.359 55.6242L323.909 55.6277L320.826 58.6682L317.743 61.7088L321.056 65.8917C322.879 68.1923 324.407 70.1399 324.453 70.2196C324.531 70.3555 324.438 70.3645 322.968 70.3645L321.399 70.3645L318.646 66.9478C317.132 65.0686 315.844 63.531 315.784 63.531C315.724 63.531 315.002 64.157 314.18 64.9221L312.685 66.3131L312.685 68.3388L312.685 70.3645L311.36 70.3645L310.035 70.3645L310.035 60.0107ZM327.098 62.9926L327.098 55.6207L328.423 55.6207L329.748 55.6207L329.748 62.9926L329.748 70.3645L328.423 70.3645L327.098 70.3645L327.098 62.9926ZM327.596 52.4524C327.396 52.3499 327.118 52.1236 326.98 51.9494C326.761 51.6749 326.724 51.5535 326.7 51.0382C326.674 50.4964 326.694 50.4101 326.917 50.0625C327.411 49.2924 328.395 49.0386 329.245 49.462C329.867 49.772 330.163 50.2508 330.163 50.9476C330.163 51.3893 330.125 51.5157 329.893 51.8586C329.383 52.6133 328.406 52.866 327.596 52.4524L327.596 52.4524ZM43.6097 73.8925C43.467 73.8645 43.1903 73.6921 42.9947 73.5094C42.7031 73.237 42.6393 73.0853 42.6408 72.6677C42.6418 72.3875 42.6872 72.0878 42.7418 72.0017C42.8497 71.8315 80.6861 33.9488 81.4976 33.1985C81.9058 32.8211 82.0772 32.7407 82.473 32.7407C83.1166 32.7407 83.5883 33.1979 83.6918 33.9223C83.8 34.6792 83.7134 72.9446 83.603 73.1654C83.5516 73.2684 83.3407 73.4792 83.1345 73.634L82.7595 73.9154L63.3142 73.9294C52.6193 73.9371 43.7523 73.9205 43.6097 73.8925L43.6097 73.8925ZM81.1781 54.2359C81.1781 42.355 81.1406 37.192 81.0545 37.192C80.899 37.192 75.7896 42.3022 75.7896 42.4577C75.7896 42.5205 76.1302 42.9262 76.5465 43.3592C77.3868 44.2333 77.5253 44.5845 77.2704 45.1945C77.0622 45.6928 76.7801 45.8603 76.1491 45.8603C75.7198 45.8603 75.5879 45.7793 74.8018 45.0326L73.9304 44.2048L72.1574 45.9707C71.1822 46.9419 70.4014 47.81 70.4221 47.8996C70.4428 47.9893 70.8156 48.4371 71.2505 48.8947C71.9258 49.6054 72.0411 49.7882 72.0411 50.1481C72.0411 50.714 71.4162 51.3659 70.8738 51.3659C70.361 51.3659 70.0939 51.2004 69.3305 50.4101C68.9671 50.0338 68.6071 49.726 68.5306 49.726C68.4073 49.726 64.8956 53.1705 64.8956 53.2914C64.8956 53.3179 65.2646 53.7092 65.7156 54.1611C66.5047 54.9518 66.6006 55.1378 66.5395 55.7587C66.4802 56.3611 65.7687 56.894 65.1751 56.7805C65.0176 56.7504 64.4942 56.3573 64.012 55.907C63.2341 55.1806 63.1128 55.1063 62.9347 55.2478C62.8244 55.3355 62.0064 56.1356 61.117 57.0258L59.5 58.6444L59.8648 59.1051C60.0655 59.3584 60.2754 59.5657 60.3314 59.5657C60.5643 59.5657 61.1471 60.6124 61.1471 61.0308C61.1471 61.645 60.6307 62.1428 59.9937 62.1428C59.4889 62.1428 59.208 61.956 58.3022 61.0179C58.0307 60.7368 57.7724 60.5059 57.7282 60.5048C57.6281 60.5024 54.1187 63.9898 54.1187 64.0916C54.1187 64.1323 54.4877 64.554 54.9387 65.0288C55.6566 65.7846 55.7587 65.947 55.7587 66.3342C55.7587 66.8575 55.5253 67.2299 55.0402 67.4808C54.4797 67.7706 54.0487 67.5994 53.2126 66.7551C52.806 66.3444 52.3966 66.0084 52.3029 66.0084C52.1523 66.0084 46.9732 71.0738 46.9732 71.2212C46.9732 71.2534 54.6693 71.2798 64.0756 71.2798L81.1781 71.2798L81.1781 54.2359ZM60.2592 67.0513C60.2311 67.0058 60.1344 66.9685 60.0443 66.9685C59.7203 66.9685 59.1491 66.4825 59.1438 66.2023C59.1423 66.1226 59.1037 66.0574 59.0582 66.0574C59.0126 66.0574 58.9753 65.9455 58.9753 65.8089C58.9753 65.6722 59.0126 65.5604 59.0582 65.5604C59.1037 65.5604 59.141 65.4834 59.141 65.3893C59.141 65.1507 74.9666 49.3256 75.2053 49.3256C75.2991 49.3256 75.3758 49.2883 75.3758 49.2428C75.3758 49.1972 75.4876 49.1599 75.6243 49.1599C75.761 49.1599 75.8728 49.1972 75.8728 49.2428C75.8728 49.2883 75.9402 49.3256 76.0227 49.3256C76.2286 49.3256 76.6935 49.7967 76.7487 50.0614C76.7736 50.1806 76.8289 50.3429 76.8717 50.422C76.9812 50.6242 76.9763 65.6998 76.8667 65.7675C76.8212 65.7956 76.7839 65.9066 76.7839 66.0141C76.7839 66.4597 76.2751 66.9685 75.8295 66.9685C75.722 66.9685 75.611 67.0058 75.5829 67.0513C75.5493 67.1056 72.9054 67.1342 67.921 67.1342C62.9366 67.1342 60.2927 67.1056 60.2592 67.0513L60.2592 67.0513ZM74.299 59.0996C74.299 55.2156 74.2734 53.7156 74.2072 53.7156C74.0888 53.7156 63.531 64.2758 63.531 64.3942C63.531 64.4572 65.1189 64.4836 68.915 64.4836L74.299 64.4836L74.299 59.0996ZM17.609 73.7753C17.3348 73.6816 17.1191 73.5327 16.9464 73.3181L16.6904 72.9998L16.6489 54.8054L16.6075 36.6111L15.7378 36.5586C15.2529 36.5294 14.7728 36.455 14.6527 36.3906C14.386 36.2475 14.164 36.0306 14.164 35.913C14.164 35.8641 14.1268 35.8242 14.0812 35.8242C14.0356 35.8242 13.9984 35.6134 13.9984 35.3558C13.9984 34.9904 14.0415 34.8309 14.1945 34.631C14.5615 34.1516 44.4196 4.3486 44.5329 4.3486C44.5949 4.3486 44.6457 4.31133 44.6457 4.26577C44.6457 4.21975 44.8666 4.18294 45.1427 4.18294C45.416 4.18294 45.6396 4.2177 45.6396 4.26019C45.6396 4.30268 45.708 4.35912 45.7915 4.38563C45.978 4.44482 61.5981 20.0535 61.7557 20.3381C61.904 20.606 61.9049 21.2782 61.7573 21.5637C61.6928 21.6883 61.5437 21.8419 61.426 21.9049C61.3082 21.9679 61.2118 22.0505 61.2118 22.0883C61.2118 22.2256 60.3096 22.1627 60.1189 22.0122C60.0179 21.9325 56.6397 18.5779 52.6119 14.5575C48.2423 10.196 45.2273 7.24767 45.1368 7.24767C44.9831 7.24767 18.3884 33.7696 18.3884 33.9229C18.3884 33.9714 19.4076 34.0019 21.0284 34.0019L23.6683 34.0019L34.0566 23.6146C45.4401 12.2322 44.693 12.9184 45.474 13.1286C45.6562 13.1777 45.8053 13.2537 45.8053 13.2975C45.8053 13.3413 45.8448 13.3771 45.8931 13.3771C45.9414 13.3771 49.8113 17.207 54.4929 21.888C59.1745 26.5689 63.0644 30.4475 63.137 30.5069C63.2519 30.6009 63.4486 30.4384 64.6414 29.2645C66.2265 27.7045 66.3703 27.5849 66.7614 27.5012C66.9209 27.4671 67.0886 27.413 67.1342 27.3811C67.1797 27.3491 67.4406 27.2511 67.714 27.1632C67.9873 27.0754 68.2296 26.98 68.2524 26.9514C68.2751 26.9228 68.423 26.8713 68.581 26.837C68.7389 26.8027 68.9253 26.7479 68.9951 26.7153C69.065 26.6826 69.1966 26.6204 69.2878 26.577C69.3789 26.5335 69.6864 26.4252 69.9711 26.3363C70.2558 26.2473 70.4888 26.1465 70.4888 26.1123C70.4888 26.0782 70.567 26.0502 70.6626 26.0502C70.8171 26.0502 71.2023 25.9108 71.5683 25.7225C71.6381 25.6865 71.8233 25.629 71.9798 25.5946C72.1362 25.5603 72.3214 25.5028 72.3912 25.4668C72.7572 25.2785 73.1424 25.1391 73.2968 25.1391C73.3925 25.1391 73.4707 25.1018 73.4707 25.0562C73.4707 25.0107 73.5639 24.9734 73.6778 24.9734C73.7917 24.9734 73.8848 24.9403 73.8848 24.8998C73.8848 24.8593 74.0246 24.8001 74.1955 24.7681C74.3663 24.7362 74.5434 24.6819 74.5889 24.6473C74.6345 24.6128 74.9044 24.5137 75.1887 24.427C75.4731 24.3403 75.706 24.2414 75.7064 24.2072C75.7081 24.0546 76.4673 24.1525 76.7649 24.3436C77.2776 24.6731 77.3637 24.8293 77.3637 25.4299C77.3637 25.733 77.3276 25.9674 77.2809 25.9674C77.2353 25.9674 77.1981 26.0397 77.1981 26.1282C77.1981 26.2166 77.164 26.31 77.1224 26.3357C77.0809 26.3614 77.0217 26.5313 76.9909 26.7133C76.9602 26.8953 76.901 27.0442 76.8595 27.0442C76.8179 27.0442 76.7839 27.1145 76.7839 27.2004C76.7839 27.2863 76.7282 27.4633 76.6602 27.5938C76.5921 27.7243 76.5362 27.8888 76.5359 27.9595C76.5357 28.0301 76.5058 28.1233 76.4696 28.1665C76.4334 28.2098 76.3334 28.4689 76.2474 28.7422C76.1614 29.0155 76.0639 29.2765 76.0307 29.322C75.9976 29.3676 75.9443 29.5446 75.9124 29.7155C75.8805 29.8863 75.8212 30.0261 75.7807 30.0261C75.7402 30.0261 75.7071 30.1193 75.7071 30.2332C75.7071 30.347 75.6721 30.4402 75.6294 30.4402C75.5866 30.4402 75.5265 30.608 75.4957 30.813C75.465 31.018 75.4068 31.1857 75.3664 31.1857C75.326 31.1857 75.293 31.2581 75.293 31.3465C75.293 31.4349 75.2589 31.5283 75.2173 31.554C75.1758 31.5797 75.1166 31.7496 75.0858 31.9316C75.0551 32.1136 74.9959 32.2625 74.9544 32.2625C74.9128 32.2625 74.8788 32.3535 74.8788 32.4647C74.8788 32.5759 74.8416 32.6899 74.796 32.7181C74.7504 32.7462 74.7132 32.8267 74.7132 32.8968C74.7132 32.967 74.6608 33.1418 74.5967 33.2854C74.5327 33.4289 74.4169 33.7327 74.3395 33.9605C74.262 34.1883 74.1682 34.4492 74.131 34.5403C73.8453 35.2402 73.7618 35.4101 73.7032 35.4101C73.6665 35.4101 73.6364 35.4502 73.6364 35.4992C73.6364 35.5834 63.3699 45.8753 62.9498 46.2121C62.7141 46.4012 61.7868 46.4535 61.7293 46.281C61.7104 46.2244 61.6581 46.178 61.6131 46.178C61.5127 46.178 61.3792 46.0417 61.19 45.7461C61.0062 45.4588 61.0052 44.9093 61.188 44.6304C61.266 44.5113 63.4838 42.2603 66.1164 39.6282C69.1488 36.5963 70.9029 34.7837 70.9029 34.6821C70.9029 34.4947 67.055 30.6059 66.8696 30.6059C66.6901 30.6059 41.8293 55.498 41.83 55.677C41.8308 55.9127 45.6431 59.6794 45.8808 59.6794C46.0243 59.6794 47.1742 58.5804 50.409 55.3515C55.0566 50.7125 54.9495 50.8166 55.0788 50.8166C55.1263 50.8166 55.1651 50.7793 55.1651 50.7337C55.1651 50.6882 55.3515 50.6509 55.5793 50.6509C55.8071 50.6509 55.9934 50.6797 55.9934 50.7149C55.9934 50.7501 56.1174 50.8456 56.2689 50.9272C56.4727 51.037 56.5829 51.1828 56.6928 51.4884C56.9796 52.286 57.1663 52.0631 51.4037 57.8011C48.5751 60.6176 45.8322 63.3395 45.3083 63.8498C44.4587 64.6774 43.6314 65.3119 43.402 65.3119C43.3571 65.3119 43.3204 65.3407 43.3204 65.3759C43.3204 65.4413 42.7482 65.6159 42.2635 65.6984C42.115 65.7237 41.9731 65.7775 41.948 65.818C41.885 65.92 40.2777 65.9115 40.2142 65.8088C40.1861 65.7633 40.0814 65.7255 39.9816 65.7248C39.6179 65.7224 38.2986 65.1773 38.0328 64.9196C37.9719 64.8606 37.7855 64.7104 37.6186 64.5858C37.2132 64.2831 37.2095 64.2792 36.7149 63.6138C36.4778 63.2949 36.2613 62.9315 36.2338 62.8062C36.2063 62.6809 36.1495 62.5784 36.1075 62.5784C36.0656 62.5784 36.0313 62.4853 36.0313 62.3714C36.0313 62.2575 35.997 62.1643 35.955 62.1643C35.9131 62.1643 35.8554 61.9127 35.8269 61.6052C35.7983 61.2977 35.7394 60.9813 35.696 60.9022C35.598 60.7236 35.5921 60.1188 35.6877 60.0597C35.7266 60.0357 35.7811 59.7451 35.8088 59.4139C35.8366 59.0827 35.898 58.7989 35.9453 58.7831C35.9926 58.7673 36.0313 58.6643 36.0313 58.5543C36.0313 58.4442 36.0656 58.3541 36.1075 58.3541C36.1495 58.3541 36.2063 58.2516 36.2338 58.1263C36.3053 57.8007 37.0372 56.8542 37.8329 56.0582C38.3804 55.5104 38.5162 55.3259 38.5162 55.1298C38.5162 54.9951 38.4789 54.8619 38.4334 54.8338C38.319 54.7631 38.319 39.0838 38.4334 39.0132C38.4789 38.985 38.5162 38.8552 38.5162 38.7247C38.5162 38.4701 38.8714 37.9778 39.0551 37.9778C39.1156 37.9778 39.1806 37.9312 39.1996 37.8742C39.2501 37.7225 51.0352 37.7225 51.0858 37.8742C51.1047 37.9312 51.1712 37.9778 51.2334 37.9778C51.2956 37.9778 51.4416 38.1024 51.5578 38.2548C51.9208 38.7307 51.82 39.5738 51.3561 39.9406C51.2871 39.9951 51.056 40.0976 50.8424 40.1684C50.5096 40.2786 49.7789 40.297 45.7276 40.297L41.0011 40.297L41.0011 46.5093C41.0011 50.7123 41.0287 52.7216 41.0864 52.7216C41.1578 52.7216 60.8586 33.0666 61.327 32.528L61.4836 32.3478L53.3652 24.2292C48.9001 19.7639 45.1984 16.1105 45.1391 16.1105C45.0799 16.1105 40.494 20.6474 34.9484 26.1924C29.4027 31.7375 24.8151 36.2905 24.7537 36.3102C24.6923 36.3299 24.6155 36.387 24.5831 36.4371C24.5431 36.4988 23.6723 36.5416 21.8911 36.5696L19.2581 36.6111L19.2372 53.9829L19.2163 71.3548L29.6324 71.3773C39.9114 71.3996 40.0512 71.4021 40.2442 71.5656C40.748 71.9922 40.8355 72.1439 40.8355 72.5907C40.8355 73.1344 40.6346 73.4707 40.1728 73.6998L39.8001 73.8848L28.9079 73.8995C18.9072 73.913 17.9824 73.9028 17.609 73.7752L17.609 73.7753ZM41.7466 63.324C41.7466 63.2784 41.8248 63.2411 41.9204 63.2411C42.1356 63.2411 42.6324 63.0107 42.8988 62.7873C43.5312 62.2569 44.0628 61.6728 44.0183 61.5571C43.9916 61.4875 43.5042 60.9713 42.9351 60.41C42.366 59.8487 41.8565 59.3411 41.8028 59.282C41.7491 59.2229 41.6573 59.1297 41.5988 59.0749C41.5402 59.0202 41.4369 58.9194 41.3692 58.8511C40.3335 57.8063 40.0307 57.5263 39.9365 57.5261C39.7866 57.5257 38.6819 58.6585 38.6819 58.8126C38.6819 58.8793 38.6446 58.9339 38.599 58.9339C38.5535 58.9339 38.5162 58.9867 38.5162 59.0513C38.5162 59.1158 38.4742 59.1826 38.4229 59.1997C38.3715 59.2168 38.3108 59.4257 38.2879 59.6639C38.265 59.9021 38.2138 60.1171 38.1742 60.1416C38.1345 60.1661 38.1021 60.3122 38.1021 60.4663C38.1021 60.6204 38.1345 60.7665 38.1742 60.791C38.2138 60.8155 38.265 61.0305 38.2879 61.2687C38.3108 61.5069 38.3715 61.7158 38.4229 61.7329C38.4742 61.75 38.5162 61.8168 38.5162 61.8813C38.5162 61.9459 38.5535 61.9987 38.599 61.9987C38.6446 61.9987 38.6819 62.0506 38.6819 62.1142C38.6819 62.4099 39.8022 63.2411 40.2008 63.2411C40.3221 63.2411 40.4213 63.2784 40.4213 63.324C40.4213 63.3723 40.6974 63.4068 41.084 63.4068C41.4705 63.4068 41.7466 63.3723 41.7466 63.324L41.7466 63.324ZM72.3939 32.1017C72.3939 32.0133 72.429 31.9193 72.4719 31.8927C72.5149 31.8662 72.575 31.6776 72.6056 31.4737C72.6362 31.2697 72.6943 31.1029 72.7346 31.1029C72.775 31.1029 72.8081 31.0512 72.8081 30.9881C72.8081 30.925 72.8637 30.7666 72.9318 30.6361C72.9998 30.5056 73.0558 30.3149 73.056 30.2124C73.0563 30.1099 73.0938 30.0261 73.1394 30.0261C73.1849 30.0261 73.2222 29.9329 73.2222 29.819C73.2222 29.7051 73.2553 29.6119 73.2958 29.6119C73.3363 29.6119 73.3948 29.4769 73.4257 29.3118C73.4567 29.1468 73.5124 28.9511 73.5495 28.877C73.7676 28.4416 73.9952 27.7067 73.9316 27.6431C73.8708 27.5824 73.1394 27.7263 73.1394 27.7991C73.1394 27.8394 73.0462 27.8725 72.9323 27.8725C72.8184 27.8725 72.7252 27.9056 72.7252 27.9461C72.7252 27.9866 72.5854 28.0458 72.4146 28.0778C72.2438 28.1097 72.0667 28.1629 72.0212 28.196C71.9756 28.2292 71.7054 28.3283 71.4206 28.4164C71.1359 28.5045 70.9029 28.6045 70.9029 28.6386C70.9029 28.6728 70.8247 28.7008 70.7291 28.7008C70.5703 28.7008 70.1688 28.848 69.8066 29.0391C69.7275 29.0808 69.6109 29.1149 69.5475 29.1149C69.4841 29.1149 69.386 29.1707 69.3295 29.2388C69.243 29.343 69.4538 29.591 70.6654 30.81C72.0443 32.1974 72.3939 32.4587 72.3939 32.1017L72.3939 32.1017ZM58.1732 49.512C57.8902 49.2564 57.6501 48.8351 57.6501 48.5943C57.6501 48.3836 57.8564 47.9221 58.0533 47.6922C58.2406 47.4738 58.7362 47.3507 59.1447 47.4211C59.4559 47.4747 59.9693 47.8697 59.9693 48.0554C59.9693 48.1162 60.0066 48.166 60.0522 48.166C60.2103 48.166 60.1411 48.8356 59.955 49.1057C59.6139 49.6009 59.3895 49.7335 58.8867 49.7368C58.4975 49.7393 58.386 49.7042 58.1732 49.512L58.1732 49.512ZM23.441 56.1177C23.441 56.0721 23.3465 56.0349 23.2311 56.0349C23.0129 56.0349 22.6185 55.8237 22.5074 55.6475C22.4722 55.5917 22.379 55.4817 22.3003 55.4029C22.1674 55.27 22.1572 54.8408 22.1572 49.3798C22.1572 44.7495 22.1792 43.4925 22.2607 43.4653C22.3177 43.4464 22.3643 43.3813 22.3643 43.3208C22.3643 43.1371 22.8565 42.782 23.1112 42.782C23.2417 42.782 23.3715 42.7447 23.3996 42.6992C23.4329 42.6453 25.3454 42.6163 28.8664 42.6163C32.3875 42.6163 34.3 42.6453 34.3333 42.6992C34.3614 42.7447 34.4912 42.782 34.6217 42.782C34.8764 42.782 35.3686 43.1371 35.3686 43.3208C35.3686 43.3813 35.4152 43.4464 35.4722 43.4653C35.5537 43.4925 35.5757 44.7495 35.5757 49.3798C35.5757 54.8408 35.5655 55.27 35.4326 55.4029C35.3539 55.4817 35.2607 55.5917 35.2255 55.6475C35.1144 55.8237 34.72 56.0349 34.5018 56.0349C34.3863 56.0349 34.2918 56.0721 34.2918 56.1177C34.2918 56.1721 32.4282 56.2005 28.8664 56.2005C25.3047 56.2005 23.441 56.1721 23.441 56.1177L23.441 56.1177ZM33.0294 49.3877L33.008 45.2255L28.8665 45.2255L24.7249 45.2255L24.7035 49.3877L24.682 53.55L28.8665 53.55L33.0509 53.55L33.0294 49.3877ZM44.5628 34.8181C44.0191 34.764 43.2311 34.5879 43.1547 34.5034C43.1142 34.4585 42.7531 34.2502 42.3815 34.0575C42.2787 34.0041 42.0956 33.8673 41.9746 33.7534C41.8536 33.6395 41.7062 33.5053 41.647 33.4552C41.2385 33.1088 40.4213 31.8819 40.4213 31.615C40.4213 31.5338 40.3843 31.4303 40.339 31.3851C40.1005 31.1465 40.1056 28.3867 40.3447 28.3004C40.3868 28.2852 40.4213 28.2044 40.4213 28.1208C40.4213 27.9854 40.6444 27.4837 40.7528 27.3756C40.7756 27.3527 40.8484 27.2292 40.9145 27.101C41.1381 26.6676 42.1975 25.6889 42.7494 25.4059C43.0407 25.2566 43.3442 25.1354 43.4239 25.1367C43.5036 25.138 43.5689 25.1018 43.5689 25.0562C43.5689 25.0107 43.6807 24.9734 43.8174 24.9734C43.954 24.9734 44.0658 24.9361 44.0658 24.8906C44.0658 24.8396 44.48 24.8078 45.1426 24.8078C45.8053 24.8078 46.2194 24.8396 46.2194 24.8906C46.2194 24.9361 46.3104 24.9734 46.4216 24.9734C46.5328 24.9734 46.6469 25.0107 46.675 25.0562C46.7032 25.1018 46.8037 25.1391 46.8985 25.1391C46.9933 25.1391 47.2526 25.2509 47.4747 25.3876C47.6968 25.5242 47.9103 25.6361 47.9491 25.6361C48.0641 25.6361 49.2438 26.8543 49.3707 27.1042C49.4349 27.2306 49.5722 27.4731 49.6757 27.643C49.7793 27.813 49.864 28.0242 49.864 28.1124C49.864 28.2006 49.8994 28.2853 49.9427 28.3004C50.1692 28.3799 50.1752 31.1561 49.9494 31.3819C49.9024 31.4289 49.864 31.5531 49.864 31.6578C49.864 31.7626 49.8267 31.8483 49.7811 31.8483C49.7356 31.8483 49.6983 31.8917 49.6983 31.9446C49.6983 32.137 48.9717 33.1724 48.6382 33.4552C48.5791 33.5053 48.4486 33.6218 48.3483 33.7141C48.122 33.9222 47.3227 34.4161 47.2122 34.4161C47.1673 34.4161 47.1306 34.4534 47.1306 34.4989C47.1306 34.5445 47.0573 34.5818 46.9678 34.5818C46.8783 34.5818 46.6453 34.6342 46.4501 34.6982C46.0121 34.8419 45.2737 34.8888 44.5628 34.8181L44.5628 34.8181ZM46.2069 32.2021C46.79 31.926 47.2111 31.5017 47.4932 30.9061C47.6195 30.6394 47.6399 30.4305 47.6139 29.67C47.5924 29.0439 47.5504 28.7441 47.4808 28.7209C47.4249 28.7022 47.3791 28.6512 47.3791 28.6076C47.3791 28.429 46.5994 27.624 46.4264 27.624C46.3581 27.624 46.3023 27.5867 46.3023 27.5412C46.3023 27.4956 46.2299 27.4583 46.1415 27.4583C46.0531 27.4583 45.9577 27.4211 45.9295 27.3755C45.8628 27.2674 44.4225 27.2674 44.3558 27.3755C44.3276 27.4211 44.2322 27.4583 44.1438 27.4583C44.0554 27.4583 43.983 27.4956 43.983 27.5412C43.983 27.5867 43.9253 27.624 43.8548 27.624C43.6881 27.624 42.9062 28.4059 42.9062 28.5726C42.9062 28.6431 42.878 28.7008 42.8436 28.7008C42.7237 28.7008 42.5749 29.3641 42.5749 29.8981C42.5749 30.878 43.1395 31.7499 44.0659 32.2005C44.4749 32.3995 45.7881 32.4005 46.2069 32.2021L46.2069 32.2021ZM63.5557 25.4465C63.5009 25.3913 63.4078 25.3041 63.3486 25.2528C63.0349 24.9802 62.9512 24.7905 62.9512 24.3512C62.9512 24.1012 62.9885 23.8966 63.034 23.8966C63.0796 23.8966 63.1169 23.8472 63.1169 23.7868C63.1169 23.6064 63.4942 23.3077 63.8127 23.2358C64.7405 23.0266 65.5228 23.8136 65.2723 24.7042C65.1702 25.0671 65.0639 25.2123 64.7557 25.4094C64.4934 25.5771 63.7093 25.6014 63.5557 25.4465L63.5557 25.4465Z" id="layer1" fill="#000000" stroke="none" />
  </g>
</svg>