<?xml version="1.0" encoding="utf-8"?>
<!-- Generator: Adobe Illustrator 24.3.0, SVG Export Plug-In . SVG Version: 6.00 Build 0)  -->
<svg version="1.1" xmlns="http://www.w3.org/2000/svg" xmlns:xlink="http://www.w3.org/1999/xlink" x="0px" y="0px"
	 viewBox="0 0 605 140" style="enable-background:new 0 0 605 140;" xml:space="preserve">
<style type="text/css">
	.st0{fill:#FFFFFF;}
	.st1{display:none;}
	.st2{display:inline;}
	.st3{fill:#020203;}
	.st4{font-family:'Montserrat-Bold';}
	.st5{font-size:95.8716px;}
	.st6{font-family:'Montserrat-Medium';}
	.st7{font-size:47.9358px;}
	.st8{letter-spacing:-1;}
</style>
<g id="Warstwa_1">
	<g>
		<g>
			<path class="st0" d="M64.8,6.1c9.5,9.4,18.9,18.8,28.4,28.2c0.7,0.7,1.3,1.4,1.3,2.6c0,1.1-0.2,2-1.2,2.5
				c-1.1,0.5-2.2,0.5-3.2-0.2c-0.4-0.3-0.8-0.6-1.1-1C81,30.1,72.9,22,64.8,14c-0.4-0.4-0.8-1-1.1-0.8C47.9,29,32.1,44.8,16.3,60.7
				c1.2,0,2.7-0.1,4.1,0c2.5,0.3,4.1-0.6,5.9-2.4C37.8,46.6,49.4,35,61,23.4c1.7-1.7,3.1-1.7,4.8,0c9.9,9.9,19.8,19.8,29.6,29.7
				c0.3,0.3,0.5,0.6,1,0.7c0.6-0.5,1.3-1.1,1.8-1.7c2-2.6,4.9-3.7,7.8-4.8c4-1.4,8-2.9,12-4.4c0.1,0,0.2-0.1,0.3-0.1
				c1.2-0.4,2.5-0.6,3.5,0.4c1,1,0.9,2.2,0.5,3.4c-1,3-2.1,5.9-3.2,8.9c-0.8,2.3-1.7,4.6-2.5,6.9c-0.3,0.8-0.7,1.5-1.3,2.1
				c-6.2,6.2-12.4,12.4-18.5,18.5c-1.1,1.1-2.3,1.4-3.4,0.8c-1.1-0.6-1.7-1.6-1.5-2.9c0.1-0.9,0.7-1.5,1.3-2.1
				c5.2-5.2,10.4-10.4,15.6-15.6c0.3-0.3,0.7-0.5,0.8-1c-2.2-2.2-4.5-4.3-6.6-6.3c-14.8,14.8-29.8,29.8-44.9,44.9
				c0,0.1,0.4,0.3,0.7,0.6c1.6,1.6,3.3,3.2,4.8,4.9c0.8,0.9,1.4,0.8,2.2,0c4.7-4.7,9.4-9.4,14.1-14.1c1.2-1.2,2.4-1.5,3.6-1
				c1.9,0.8,2.1,3,0.6,4.6c-3.2,3.3-6.5,6.5-9.7,9.7c-3.6,3.6-7.3,7.3-10.9,10.9c-5.8,5.8-15.4,3.3-17.5-4.6
				c-0.9-3.4-0.2-6.5,2.2-9.3c0.7-0.9,1.4-1.7,2.3-2.5c0.6-0.5,0.4-1.1,0.4-1.7c0-9.3,0-18.6,0-28c0-2.1,0.7-2.8,2.8-2.8
				c6.6,0,13.2,0,19.8,0c1,0,1.8,0.3,2.2,1.2c0.4,0.9,0.4,1.9-0.1,2.9c-0.5,0.9-1.2,1.1-2.2,1.1c-5.3,0-10.6,0-15.9,0
				c-1.2,0-1.7,0.3-1.6,1.6c0.1,6.2,0,12.5,0,18.7c0,0.3,0,0.6,0.1,1c0.5,0.1,0.7-0.3,0.9-0.5C68.4,82,79.8,70.6,91.1,59.3
				c0.2-0.2,0.4-0.5,0.7-0.7c0.6-0.5,0.5-0.9-0.1-1.4C82.5,47.9,73.3,38.6,64,29.4c-0.1-0.1-0.3-0.2-0.5-0.4
				c-0.8,0.3-1.2,0.9-1.7,1.4c-11.3,11.3-22.7,22.6-34,34c-1,1-2,1.5-3.4,1.4c-2.2-0.1-4.3,0-6.5-0.1c-1.3-0.1-1.6,0.4-1.6,1.6
				c0,16.5,0,33,0,49.4c0,3.5,0,7,0,10.5c0,1.2,0.3,1.5,1.5,1.5c11.6,0,23.1,0,34.7,0c1.2,0,2.6-0.2,3.3,1.2
				c0.6,1.3,0.3,2.6-0.5,3.8c-14.3,0.1-28.5,0.1-42.9,0c-0.9-0.7-1.2-1.6-1.2-2.6c0-8.9,0-17.9,0-26.8c0-12.4,0-24.7,0-37.1
				c0-1.2-0.4-1.6-1.5-1.5c-1.3,0.2-2.5-0.2-3.4-1.1c0-0.9,0-1.8,0.1-2.9c0.4-0.6,0.8-1,1.2-1.3C25.7,42.3,43.8,24.2,62,6.1
				C62.9,6.1,63.8,6.1,64.8,6.1 M60.6,111.4c0.1-0.2,0.1-0.4-0.1-0.6c-2-2-4-4-6-6c-0.2-0.2-0.4-0.3-0.8-0.2
				c-1.3,0.6-2.9,3.3-2.7,4.8c0.4,3.7,4.3,5.8,7.6,3.9C59.4,112.9,60,112.2,60.6,111.4 M115.3,50.3c0.2-0.5,0-0.5-0.4-0.4
				c-1,0.4-2,0.6-2.9,1.1c-1.2,0.5-2.5,0.7-3.7,1.6c1.5,1.4,2.8,3,4.6,4.3C113.7,54.6,114.5,52.5,115.3,50.3z"/>
			<path class="st0" d="M59.8,133.9c-2-1.9-2-3.4-0.1-5.3c22.2-22.2,44.4-44.4,66.6-66.6c0.9-0.9,1.9-1.8,2.8-2.8
				c1.2-1.3,3.8-1.6,4.9,0.3c0.1,24.8,0.1,49.6,0.1,74.5C109.4,133.9,84.7,133.9,59.8,133.9 M119.8,128.8c2.5,0,5.1,0,7.6,0
				c1.7,0,1.7,0,1.7-1.6c0-19.3,0-38.7,0-58c0-0.4,0.1-0.9-0.1-1.3c-0.6,0.1-0.8,0.5-1.2,0.9c-2,1.9-3.9,3.9-5.8,5.8
				c-1.8,1.8-1.8,1.8,0,3.7c0.1,0.2,0.3,0.3,0.4,0.5c0.9,1.3,0.8,3-0.3,3.9c-1,0.9-2.7,0.7-3.8-0.3c-0.7-0.6-1.2-1.4-1.9-1.8
				c-1.9,2-3.8,3.9-5.8,5.9c0.5,0.5,1.2,1.2,1.8,1.9c1.1,1.3,1.1,3.1,0.1,4.1c-1.1,1.1-2.8,0.9-4.1-0.4c-0.6-0.6-1.1-1.3-1.7-2.1
				c-1.7,1.8-3.2,3.3-4.6,4.7c-1.5,1.5-1.5,1.5,0,3c0.8,0.8,1.4,1.7,1.3,2.9c-0.1,1.1-0.7,1.9-1.7,2.3c-1.2,0.5-2.2,0.1-3.1-0.7
				c-0.7-0.6-1.2-1.4-1.7-2c-2.2,2.2-4.1,4.1-6.1,6.1c0.4,0.8,1.2,1.3,1.9,2c1,1.1,1.1,2.5,0.3,3.7c-0.7,1-2.2,1.2-3.5,0.6
				c-0.8-0.4-1.3-1-1.9-1.6c-0.6-0.7-1.1-0.8-1.8,0c-0.9,1.1-2,2-3,3c-2,2-2,2-0.1,4.1c0.1,0.1,0.1,0.1,0.2,0.2
				c0.8,0.9,0.9,2.5,0.2,3.5c-0.8,1.1-2.1,1.4-3.4,0.9c-0.7-0.3-1.2-0.9-1.7-1.4c-1.2-1.2-1.2-1.2-2.3-0.1c-2.3,2.3-4.6,4.6-7,7
				c-0.2,0.2-0.6,0.3-0.4,0.9C85.2,128.8,102.3,128.8,119.8,128.8z"/>
			<path class="st0" d="M46.3,96.7c0,1,0,1.8,0,2.6c0,1.3-0.9,2.2-2.2,2.2c-6.9,0-13.8,0-20.7,0c-1.4,0-2.2-0.9-2.2-2.3
				c0-6.9,0-13.7,0-20.6c0-1.4,0.9-2.3,2.2-2.3c6.9,0,13.7,0,20.6,0c1.5,0,2.3,0.9,2.3,2.5C46.3,84.8,46.3,90.7,46.3,96.7 M41.2,95
				c0-4,0-8.1,0-12.1c0-0.9-0.2-1.4-1.2-1.4c-4.1,0-8.2,0-12.3,0c-0.9,0-1.3,0.3-1.2,1.2c0,4.2,0,8.3,0,12.5c0,0.9,0.3,1.1,1.2,1.1
				c4.2,0,8.3,0,12.5,0C40.8,96.4,41.2,96.1,41.2,95z"/>
			<path class="st0" d="M110.2,121.5c-6.4,0-12.6,0-18.8,0c-1.2,0-2.1-0.2-2.6-1.4c-0.6-1.3-0.3-2.4,0.7-3.4
				c9.2-9.2,18.4-18.4,27.6-27.6c1-1,2.1-1.2,3.4-0.7c1.2,0.5,1.4,1.5,1.4,2.7c0,9.2,0,18.5,0,27.7c0,1.9-0.8,2.7-2.7,2.7
				C116.1,121.5,113.2,121.5,110.2,121.5 M116.6,111.3c-0.1-4.4,0.1-8.9-0.1-13.3c-6.2,6.2-12.3,12.3-18.3,18.3c-0.1-0.1-0.1,0,0,0
				c5.8,0,11.6,0,17.5,0.1c0.7,0,0.9-0.4,0.9-1C116.5,114.1,116.6,112.8,116.6,111.3z"/>
		</g>
		<g>
			<g>
				<path class="st0" d="M198.9,49.9h14.2v27.2c-3.6,2.7-7.9,4.9-12.7,6.3c-4.8,1.5-9.6,2.2-14.5,2.2c-7,0-13.2-1.5-18.8-4.5
					s-9.9-7.1-13.1-12.4c-3.2-5.3-4.7-11.2-4.7-17.9c0-6.6,1.6-12.6,4.7-17.9c3.2-5.3,7.6-9.4,13.2-12.4c5.6-3,12-4.5,19-4.5
					c5.9,0,11.2,1,16,3c4.8,2,8.8,4.9,12.1,8.6l-10,9.2c-4.8-5-10.6-7.6-17.4-7.6c-4.3,0-8.1,0.9-11.4,2.7c-3.3,1.8-5.9,4.3-7.8,7.6
					c-1.9,3.3-2.8,7-2.8,11.2c0,4.2,0.9,7.9,2.8,11.1c1.9,3.3,4.4,5.8,7.7,7.6c3.3,1.8,7,2.7,11.3,2.7c4.5,0,8.5-1,12.1-2.9V49.9z"
					/>
				<path class="st0" d="M271.7,70.1h-31.2l-5.9,14.4h-15.9l29.9-67.1h15.3l30,67.1h-16.3L271.7,70.1z M266.8,58.3l-10.6-25.7
					l-10.6,25.7H266.8z"/>
				<path class="st0" d="M359.2,55.7c2.2,2.8,3.3,6.3,3.3,10.5c0,5.9-2.3,10.4-6.9,13.6c-4.6,3.2-11.2,4.7-20,4.7h-34.7V17.4h32.8
					c8.2,0,14.5,1.6,18.8,4.7c4.4,3.1,6.6,7.4,6.6,12.8c0,3.3-0.8,6.2-2.3,8.7c-1.6,2.6-3.8,4.6-6.6,6
					C354,50.8,357.1,52.9,359.2,55.7z M316.4,29.1v15.8h15.4c3.8,0,6.7-0.7,8.7-2c2-1.3,3-3.3,3-5.9c0-2.6-1-4.6-3-5.9
					c-2-1.3-4.9-2-8.7-2H316.4z M343.7,70.8c2.1-1.3,3.1-3.4,3.1-6.2c0-5.6-4.1-8.3-12.4-8.3h-18.1v16.6h18.1
					C338.6,72.8,341.7,72.2,343.7,70.8z"/>
				<path class="st0" d="M435.3,84.5l-0.1-40.3l-19.7,33.2h-7l-19.7-32.3v39.4h-14.6V17.4h12.8l25.1,41.7L437,17.4h12.8l0.2,67.1
					H435.3z"/>
				<path class="st0" d="M510,70.1h-31.2l-5.9,14.4H457l29.9-67.1h15.3l30,67.1H516L510,70.1z M505.1,58.3l-10.6-25.7l-10.6,25.7
					H505.1z"/>
				<path class="st0" d="M582,84.5l-12.9-18.7h-0.8h-13.5v18.7h-15.5V17.4h29c5.9,0,11.1,1,15.5,3c4.4,2,7.8,4.8,10.1,8.4
					c2.4,3.6,3.5,8,3.5,12.9s-1.2,9.3-3.6,12.9c-2.4,3.6-5.8,6.4-10.2,8.3l15.1,21.6H582z M578.1,33.1c-2.4-2-6-3-10.6-3h-12.7v23.4
					h12.7c4.7,0,8.2-1,10.6-3.1c2.4-2,3.6-4.9,3.6-8.6C581.7,38,580.5,35.1,578.1,33.1z"/>
			</g>
			<g>
				<path class="st0" d="M171.9,88.8h5v30.7h19v4.3h-24V88.8z"/>
				<path class="st0" d="M224,97.3v26.5h-4.5v-4c-1,1.4-2.2,2.4-3.8,3.2c-1.6,0.8-3.3,1.1-5.2,1.1c-3.5,0-6.3-1-8.4-2.9
					c-2-2-3.1-4.8-3.1-8.6V97.3h4.8V112c0,2.6,0.6,4.5,1.9,5.8c1.2,1.3,3,2,5.3,2c2.5,0,4.5-0.8,6-2.3c1.5-1.5,2.2-3.7,2.2-6.5V97.3
					H224z"/>
				<path class="st0" d="M236.2,122.4c-2.1-1.2-3.8-2.8-5-4.8c-1.2-2-1.8-4.4-1.8-7s0.6-4.9,1.8-7c1.2-2.1,2.9-3.7,5-4.8
					c2.1-1.1,4.5-1.7,7.2-1.7c2.4,0,4.5,0.5,6.4,1.5c1.9,1,3.3,2.4,4.4,4.2l-3.6,2.3c-0.8-1.3-1.9-2.2-3.1-2.8c-1.2-0.6-2.6-1-4.1-1
					c-1.7,0-3.3,0.4-4.7,1.1c-1.4,0.8-2.5,1.9-3.2,3.3c-0.8,1.4-1.2,3-1.2,4.9c0,1.9,0.4,3.5,1.2,4.9c0.8,1.4,1.9,2.5,3.2,3.3
					c1.4,0.8,2.9,1.1,4.7,1.1c1.5,0,2.9-0.3,4.1-0.9c1.2-0.6,2.3-1.6,3.1-2.9l3.6,2.3c-1,1.8-2.5,3.2-4.4,4.2c-1.9,1-4,1.5-6.4,1.5
					C240.7,124.1,238.3,123.5,236.2,122.4z"/>
				<path class="st0" d="M252.5,133.4c-1-0.3-1.8-0.7-2.5-1.2l1.6-3.7c1,0.8,2.3,1.2,3.9,1.2c1.3,0,2.2-0.4,2.9-1.2
					c0.7-0.8,1-1.9,1-3.5V97.3h4.8V125c0,2.7-0.7,4.9-2.2,6.5c-1.5,1.6-3.5,2.3-6.2,2.3C254.6,133.8,253.5,133.7,252.5,133.4z
					 M259.5,91.3c-0.6-0.6-0.9-1.3-0.9-2.2c0-0.9,0.3-1.6,0.9-2.2c0.6-0.6,1.4-0.9,2.3-0.9c0.9,0,1.7,0.3,2.3,0.9
					c0.6,0.6,0.9,1.3,0.9,2.2c0,0.9-0.3,1.7-0.9,2.3c-0.6,0.6-1.4,0.9-2.3,0.9C260.9,92.2,260.1,91.9,259.5,91.3z"/>
				<path class="st0" d="M290.2,99.8c2,1.8,2.9,4.5,2.9,8v16h-4.5v-3.5c-0.8,1.2-1.9,2.2-3.4,2.8c-1.5,0.6-3.2,1-5.3,1
					c-3,0-5.3-0.7-7.1-2.1s-2.7-3.3-2.7-5.7c0-2.3,0.9-4.2,2.5-5.6c1.7-1.4,4.4-2.1,8.1-2.1h7.6v-1c0-2.1-0.6-3.6-1.8-4.8
					c-1.2-1.1-3-1.6-5.3-1.6c-1.6,0-3.1,0.3-4.6,0.8c-1.5,0.5-2.8,1.2-3.8,2.1l-2-3.6c1.4-1.1,3-1.9,4.9-2.5
					c1.9-0.6,3.9-0.9,6.1-0.9C285.4,97.1,288.2,98,290.2,99.8z M285.4,119.2c1.3-0.8,2.3-2,2.9-3.5V112h-7.4c-4.1,0-6.1,1.4-6.1,4.1
					c0,1.3,0.5,2.4,1.5,3.2s2.5,1.1,4.3,1.1C282.5,120.4,284.1,120,285.4,119.2z"/>
				<path class="st0" d="M322.9,100c2,2,3,4.8,3,8.6v15.2h-4.8v-14.7c0-2.6-0.6-4.5-1.9-5.8s-3-2-5.3-2c-2.6,0-4.7,0.8-6.2,2.3
					s-2.2,3.7-2.2,6.5v13.7h-4.8V97.3h4.6v4c1-1.4,2.3-2.4,3.9-3.2c1.6-0.7,3.5-1.1,5.6-1.1C318.3,97.1,320.9,98,322.9,100z"/>
				<path class="st0" d="M357.9,108.3l-6.4,6.5v9h-5v-35h5v19.5l19-19.5h5.7l-15,15.8l15.9,19.2h-5.9L357.9,108.3z"/>
				<path class="st0" d="M404.3,97.3v26.5h-4.5v-4c-1,1.4-2.2,2.4-3.8,3.2c-1.6,0.8-3.3,1.1-5.2,1.1c-3.5,0-6.3-1-8.4-2.9
					s-3-4.8-3-8.6V97.3h4.8V112c0,2.6,0.6,4.5,1.9,5.8c1.2,1.3,3,2,5.3,2c2.5,0,4.5-0.8,6-2.3s2.2-3.7,2.2-6.5V97.3H404.3z"/>
				<path class="st0" d="M416.5,122.4c-2.1-1.2-3.8-2.8-5-4.8c-1.2-2-1.8-4.4-1.8-7s0.6-4.9,1.8-7c1.2-2.1,2.9-3.7,5-4.8
					c2.1-1.1,4.5-1.7,7.2-1.7c2.4,0,4.5,0.5,6.4,1.5c1.9,1,3.3,2.4,4.4,4.2l-3.7,2.3c-0.8-1.3-1.9-2.2-3.1-2.8c-1.2-0.6-2.6-1-4.1-1
					c-1.7,0-3.3,0.4-4.7,1.1c-1.4,0.8-2.5,1.9-3.2,3.3c-0.8,1.4-1.2,3-1.2,4.9c0,1.9,0.4,3.5,1.2,4.9c0.8,1.4,1.9,2.5,3.2,3.3
					c1.4,0.8,2.9,1.1,4.7,1.1c1.5,0,2.9-0.3,4.1-0.9c1.2-0.6,2.3-1.6,3.1-2.9l3.7,2.3c-1,1.8-2.5,3.2-4.4,4.2c-1.9,1-4,1.5-6.4,1.5
					C421,124.1,418.6,123.5,416.5,122.4z"/>
				<path class="st0" d="M461.3,100c2,2,3,4.8,3,8.6v15.2h-4.8v-14.7c0-2.6-0.6-4.5-1.9-5.8s-3-2-5.3-2c-2.6,0-4.7,0.8-6.2,2.3
					s-2.2,3.7-2.2,6.5v13.7h-4.8V86.7h4.8v14.3c1-1.3,2.3-2.2,3.9-3c1.6-0.7,3.4-1,5.4-1C456.6,97.1,459.3,98,461.3,100z"/>
				<path class="st0" d="M490,99.8c2,1.8,2.9,4.5,2.9,8v16h-4.5v-3.5c-0.8,1.2-1.9,2.2-3.4,2.8c-1.5,0.6-3.2,1-5.3,1
					c-3,0-5.3-0.7-7.1-2.1s-2.7-3.3-2.7-5.7c0-2.3,0.8-4.2,2.5-5.6c1.7-1.4,4.4-2.1,8.1-2.1h7.6v-1c0-2.1-0.6-3.6-1.8-4.8
					c-1.2-1.1-3-1.6-5.3-1.6c-1.6,0-3.1,0.3-4.6,0.8c-1.5,0.5-2.8,1.2-3.8,2.1l-2-3.6c1.4-1.1,3-1.9,4.9-2.5c1.9-0.6,3.9-0.9,6-0.9
					C485.2,97.1,488,98,490,99.8z M485.2,119.2c1.3-0.8,2.3-2,2.9-3.5V112h-7.4c-4.1,0-6.1,1.4-6.1,4.1c0,1.3,0.5,2.4,1.5,3.2
					s2.5,1.1,4.3,1.1S483.9,120,485.2,119.2z"/>
				<path class="st0" d="M508.8,98.3c1.6-0.8,3.6-1.2,6-1.2v4.7c-0.3,0-0.6-0.1-1.1-0.1c-2.6,0-4.6,0.8-6.1,2.3
					c-1.5,1.5-2.2,3.8-2.2,6.6v13.2h-4.8V97.3h4.6v4.5C506,100.2,507.2,99.1,508.8,98.3z"/>
				<path class="st0" d="M521,123.2c-2-0.6-3.6-1.3-4.7-2.2l2-3.8c1.2,0.8,2.6,1.5,4.2,2c1.7,0.5,3.3,0.8,5,0.8
					c4.2,0,6.3-1.2,6.3-3.6c0-0.8-0.3-1.4-0.8-1.9c-0.6-0.5-1.3-0.8-2.1-1c-0.9-0.2-2.1-0.5-3.6-0.7c-2.1-0.3-3.9-0.7-5.2-1.2
					c-1.3-0.4-2.5-1.2-3.5-2.2c-1-1-1.5-2.5-1.5-4.3c0-2.4,1-4.3,3-5.8s4.7-2.2,8-2.2c1.8,0,3.5,0.2,5.3,0.7c1.8,0.4,3.2,1,4.3,1.8
					l-2,3.8c-2.2-1.4-4.7-2.1-7.7-2.1c-2,0-3.6,0.3-4.6,1c-1.1,0.7-1.6,1.6-1.6,2.7c0,0.9,0.3,1.5,0.9,2c0.6,0.5,1.3,0.9,2.2,1.1
					c0.9,0.2,2.1,0.5,3.7,0.8c2.1,0.4,3.9,0.8,5.2,1.2c1.3,0.4,2.4,1.1,3.4,2.1c0.9,1,1.4,2.4,1.4,4.2c0,2.4-1,4.3-3.1,5.7
					c-2.1,1.4-4.8,2.1-8.4,2.1C525.1,124.1,523,123.8,521,123.2z"/>
				<path class="st0" d="M553.7,111.5l-5.5,5.1v7.2h-4.8V86.7h4.8v23.8l14.5-13.2h5.8l-11.1,11l12.2,15.5h-5.9L553.7,111.5z"/>
				<path class="st0" d="M572.7,91.3c-0.6-0.6-0.9-1.3-0.9-2.2c0-0.9,0.3-1.6,0.9-2.2c0.6-0.6,1.4-0.9,2.3-0.9
					c0.9,0,1.7,0.3,2.3,0.9c0.6,0.6,0.9,1.3,0.9,2.2c0,0.9-0.3,1.7-0.9,2.3c-0.6,0.6-1.4,0.9-2.3,0.9
					C574.1,92.2,573.3,91.9,572.7,91.3z M572.6,97.3h4.8v26.5h-4.8V97.3z"/>
			</g>
		</g>
	</g>
</g>
<g id="Warstwa_2" class="st1">
	<g class="st2">
		<g>
			<path class="st3" d="M113.7-87.8c9.5,9.4,18.9,18.8,28.4,28.2c0.7,0.7,1.3,1.4,1.3,2.6c0,1.1-0.2,2-1.2,2.5
				c-1.1,0.5-2.2,0.5-3.2-0.2c-0.4-0.3-0.8-0.6-1.1-1c-8.1-8.1-16.1-16.1-24.2-24.2c-0.4-0.4-0.8-1-1.1-0.8
				C96.8-64.9,81-49.1,65.1-33.2c1.2,0,2.7-0.1,4.1,0c2.5,0.3,4.1-0.6,5.9-2.4c11.5-11.7,23.2-23.3,34.8-34.9c1.7-1.7,3.1-1.7,4.8,0
				c9.9,9.9,19.8,19.8,29.6,29.7c0.3,0.3,0.5,0.6,1,0.7c0.6-0.5,1.3-1.1,1.8-1.7c2-2.6,4.9-3.7,7.8-4.8c4-1.4,8-2.9,12-4.4
				c0.1,0,0.2-0.1,0.3-0.1c1.2-0.4,2.5-0.6,3.5,0.4c1,1,0.9,2.2,0.5,3.4c-1,3-2.1,5.9-3.2,8.9c-0.8,2.3-1.7,4.6-2.5,6.9
				c-0.3,0.8-0.7,1.5-1.3,2.1c-6.2,6.2-12.4,12.4-18.5,18.5c-1.1,1.1-2.3,1.4-3.4,0.8c-1.1-0.6-1.7-1.6-1.5-2.9
				c0.1-0.9,0.7-1.5,1.3-2.1c5.2-5.2,10.4-10.4,15.6-15.6c0.3-0.3,0.7-0.5,0.8-1c-2.2-2.2-4.5-4.3-6.6-6.3
				c-14.8,14.8-29.8,29.8-44.9,44.9c0,0.1,0.4,0.3,0.7,0.6c1.6,1.6,3.3,3.2,4.8,4.9c0.8,0.9,1.4,0.8,2.2,0
				c4.7-4.7,9.4-9.4,14.1-14.1c1.2-1.2,2.4-1.5,3.6-1c1.9,0.8,2.1,3,0.6,4.6c-3.2,3.3-6.5,6.5-9.7,9.7c-3.6,3.6-7.3,7.3-10.9,10.9
				c-5.8,5.8-15.4,3.3-17.5-4.6c-0.9-3.4-0.2-6.5,2.2-9.3c0.7-0.9,1.4-1.7,2.3-2.5c0.6-0.5,0.4-1.1,0.4-1.7c0-9.3,0-18.6,0-28
				c0-2.1,0.7-2.8,2.8-2.8c6.6,0,13.2,0,19.8,0c1,0,1.8,0.3,2.2,1.2c0.4,0.9,0.4,1.9-0.1,2.9c-0.5,0.9-1.2,1.1-2.2,1.1
				c-5.3,0-10.6,0-15.9,0c-1.2,0-1.7,0.3-1.6,1.6c0.1,6.2,0,12.5,0,18.7c0,0.3,0,0.6,0.1,1c0.5,0.1,0.7-0.3,0.9-0.5
				c11.4-11.3,22.7-22.7,34.1-34.1c0.2-0.2,0.4-0.5,0.7-0.7c0.6-0.5,0.5-0.9-0.1-1.4c-9.3-9.2-18.5-18.5-27.7-27.7
				c-0.1-0.1-0.3-0.2-0.5-0.4c-0.8,0.3-1.2,0.9-1.7,1.4c-11.3,11.3-22.7,22.6-34,34c-1,1-2,1.5-3.4,1.4c-2.2-0.1-4.3,0-6.5-0.1
				c-1.3-0.1-1.6,0.4-1.6,1.6c0,16.5,0,33,0,49.4c0,3.5,0,7,0,10.5c0,1.2,0.3,1.5,1.5,1.5c11.6,0,23.1,0,34.7,0
				c1.2,0,2.6-0.2,3.3,1.2c0.6,1.3,0.3,2.6-0.5,3.8c-14.3,0.1-28.5,0.1-42.9,0c-0.9-0.7-1.2-1.6-1.2-2.6c0-8.9,0-17.9,0-26.8
				c0-12.4,0-24.7,0-37.1c0-1.2-0.4-1.6-1.5-1.5c-1.3,0.2-2.5-0.2-3.4-1.1c0-0.9,0-1.8,0.1-2.9c0.4-0.6,0.8-1,1.2-1.3
				c18.1-18.1,36.3-36.3,54.5-54.4C111.7-87.8,112.7-87.8,113.7-87.8 M109.5,17.5c0.1-0.2,0.1-0.4-0.1-0.6c-2-2-4-4-6-6
				c-0.2-0.2-0.4-0.3-0.8-0.2c-1.3,0.6-2.9,3.3-2.7,4.8c0.4,3.7,4.3,5.8,7.6,3.9C108.3,19,108.8,18.2,109.5,17.5 M164.2-43.6
				c0.2-0.5,0-0.5-0.4-0.4c-1,0.4-2,0.6-2.9,1.1c-1.2,0.5-2.5,0.7-3.7,1.6c1.5,1.4,2.8,3,4.6,4.3C162.6-39.3,163.3-41.4,164.2-43.6z
				"/>
			<path class="st3" d="M108.7,40c-2-1.9-2-3.4-0.1-5.3c22.2-22.2,44.4-44.4,66.6-66.6c0.9-0.9,1.9-1.8,2.8-2.8
				c1.2-1.3,3.8-1.6,4.9,0.3C183-9.6,183,15.2,183,40C158.3,40,133.5,40,108.7,40 M168.6,34.9c2.5,0,5.1,0,7.6,0
				c1.7,0,1.7,0,1.7-1.6c0-19.3,0-38.7,0-58c0-0.4,0.1-0.9-0.1-1.3c-0.6,0.1-0.8,0.5-1.2,0.9c-2,1.9-3.9,3.9-5.8,5.8
				c-1.8,1.8-1.8,1.8,0,3.7c0.1,0.2,0.3,0.3,0.4,0.5c0.9,1.3,0.8,3-0.3,3.9c-1,0.9-2.7,0.7-3.8-0.3c-0.7-0.6-1.2-1.4-1.9-1.8
				c-1.9,2-3.8,3.9-5.8,5.9c0.5,0.5,1.2,1.2,1.8,1.9c1.1,1.3,1.1,3.1,0.1,4.1c-1.1,1.1-2.8,0.9-4.1-0.4c-0.6-0.6-1.1-1.3-1.7-2.1
				c-1.7,1.8-3.2,3.3-4.6,4.7c-1.5,1.5-1.5,1.5,0,3c0.8,0.8,1.4,1.7,1.3,2.9c-0.1,1.1-0.7,1.9-1.7,2.3c-1.2,0.5-2.2,0.1-3.1-0.7
				c-0.7-0.6-1.2-1.4-1.7-2c-2.2,2.2-4.1,4.1-6.1,6.1c0.4,0.8,1.2,1.3,1.9,2c1,1.1,1.1,2.5,0.3,3.7c-0.7,1-2.2,1.2-3.5,0.6
				c-0.8-0.4-1.3-1-1.9-1.6c-0.6-0.7-1.1-0.8-1.8,0c-0.9,1.1-2,2-3,3c-2,2-2,2-0.1,4.1c0.1,0.1,0.1,0.1,0.2,0.2
				c0.8,0.9,0.9,2.5,0.2,3.5c-0.8,1.1-2.1,1.4-3.4,0.9c-0.7-0.3-1.2-0.9-1.7-1.4c-1.2-1.2-1.2-1.2-2.3-0.1c-2.3,2.3-4.6,4.6-7,7
				c-0.2,0.2-0.6,0.3-0.4,0.9C134,34.9,151.2,34.9,168.6,34.9z"/>
			<path class="st3" d="M95.2,2.8c0,1,0,1.8,0,2.6c0,1.3-0.9,2.2-2.2,2.2c-6.9,0-13.8,0-20.7,0c-1.4,0-2.2-0.9-2.2-2.3
				c0-6.9,0-13.7,0-20.6c0-1.4,0.9-2.3,2.2-2.3c6.9,0,13.7,0,20.6,0c1.5,0,2.3,0.9,2.3,2.5C95.2-9.1,95.2-3.2,95.2,2.8 M90,1.1
				c0-4,0-8.1,0-12.1c0-0.9-0.2-1.4-1.2-1.4c-4.1,0-8.2,0-12.3,0c-0.9,0-1.3,0.3-1.2,1.2c0,4.2,0,8.3,0,12.5c0,0.9,0.3,1.1,1.2,1.1
				c4.2,0,8.3,0,12.5,0C89.7,2.5,90.1,2.2,90,1.1z"/>
			<path class="st3" d="M159,27.6c-6.4,0-12.6,0-18.8,0c-1.2,0-2.1-0.2-2.6-1.4c-0.6-1.3-0.3-2.4,0.7-3.4
				c9.2-9.2,18.4-18.4,27.6-27.6c1-1,2.1-1.2,3.4-0.7c1.2,0.5,1.4,1.5,1.4,2.7c0,9.2,0,18.5,0,27.7c0,1.9-0.8,2.7-2.7,2.7
				C165,27.6,162,27.6,159,27.6 M165.4,17.4c-0.1-4.4,0.1-8.9-0.1-13.3c-6.2,6.2-12.3,12.3-18.3,18.3c-0.1-0.1-0.1,0,0,0
				c5.8,0,11.6,0,17.5,0.1c0.7,0,0.9-0.4,0.9-1C165.4,20.2,165.4,18.9,165.4,17.4z"/>
		</g>
		<g>
			<text transform="matrix(1 0 0 1 197.0368 -9.1232)" class="st4 st5">GABMAR</text>
			<text transform="matrix(1 0 0 1 212.9016 30.1796)" class="st6 st7 st8">Lucjan Kucharkski</text>
		</g>
	</g>
</g>
</svg>
